<svg viewBox="0 0 24 24" fill="none" xmlns="http://www.w3.org/2000/svg">
    <path d="M17 0H6.92C5.837 0 4.848.186 3.977.536a6.172 6.172 0 0 0-2.081 1.36A6.19 6.19 0 0 0 .5 4.068C.174 4.916 0 5.875 0 6.92V17c0 1.111.188 2.118.54 3a6.227 6.227 0 0 0 1.364 2.096 6.103 6.103 0 0 0 2.085 1.364c.885.354 1.897.54 3.011.54h10c1.111 0 2.118-.188 3-.54a6.225 6.225 0 0 0 2.096-1.364A6.108 6.108 0 0 0 23.464 20c.351-.883.536-1.89.536-3V7c0-1.083-.178-2.066-.513-2.932a6.24 6.24 0 0 0-1.391-2.164A6.107 6.107 0 0 0 20 .536C19.117.185 18.11 0 17 0Z" class="bg" />
    <path d="M5.024 13.024c.456.024 1.176.249 1.68.4.624.185.928.688.928 1.184 0 2.832 2.368 4.64 3.496 4.64v.008c.256 0 .376.08.376.248 0 .128-.112.448-1.223.496-.72.024-1.433-.12-1.633-.16-.848-.16-1.568-.431-2.176-.831-1.464-.96-2.352-2.657-2.456-4.664-.032-.48-.088-1.393 1.008-1.32Zm4.944.8c.24.024.984.064 1.408.152.32.064.528.249.584.624.28 2.008 1.504 2.8 2.232 2.968v-.008c.128.032.2.12.2.272-.008.152-.088.352-1.216.376-1.024.024-1.984-.456-2.712-1.288-.616-.704-.983-1.416-1.055-2.327-.04-.6.215-.8.56-.769Zm4.568.456c.232.009.304.343.312.432h.008c.088.76.504 1.096.824 1.248.192.088.144.377-.256.385-.456 0-.856-.144-1.184-.416-.392-.32-.712-.8-.72-1.36 0-.283.285-.289.296-.289h.72Zm3.344-4.656c.368 0 .496.128.496.248s-.176.248-.376.248c-1.976 0-2.6 1.216-3.056 2.456-.152.4-.488.464-.904.393-.296-.056-.615-.097-.504-.624.24-1.088 1.088-2.721 4.336-2.721h.008ZM17 7.009c.216 0 1.199 0 2 .104.599.079 1.096.216 1.096.455 0 .312-.632.28-.904.28-.82 0-1.546.046-2.192.141-.972.143-1.762.397-2.416.772-1.072.616-1.824 1.551-2.328 2.943-.056.12-.232.832-.872.76-.392-.048-.984-.088-1.36-.184-.608-.152-.592-.728-.568-.912.072-.56.273-1.08.577-1.56.376-.592.92-1.104 1.624-1.528.64-.387 1.449-.7 2.343-.92A12.7 12.7 0 0 1 17 7v.009Zm-4.967-2.681c1.632-.17 3.311-.16 4.967.035.672.08 1.34.19 2 .331.464.1.923.215 1.376.346.192.048.72.184.608.504-.069.195-.214.188-.984.138-.257-.016-.583-.038-1-.058-.38-.019-.837-.036-1.384-.048-.967-.024-1.936.04-2.904.192-1.664.264-3.376.808-4.752 1.96a6.13 6.13 0 0 0-1.64 2.104c-.096.224-.175.44-.247.664-.072.232-.337 1.4-1.569 1.176-.432-.08-.848-.263-1.256-.367-1.263-.32-1.048-1.64-.928-2 .583-1.784 1.814-2.962 3.27-3.729 1.398-.737 3.004-1.095 4.443-1.248Z" class="symbol"/>
        <style>
        .symbol { fill: #fff; }
        .bg { fill: #263238; }
        @media (prefers-color-scheme: dark) {
            .symbol { fill: #263238; }
            .bg { fill: #fff; }
        }
    </style>
</svg>
